{"title":"My.Big.Fat.Greek.Wedding.2.2016.HD-TS.XVID.AC3.HQ.Hive-CM8","uid":14244951,"size":1267575083,"categoryP":"video","categoryS":"movies","magnet":"?xt=urn:btih:4e260539b9f250ba2ec00b48d066eca653c8b807&amp;dn=My.Big.Fat.Greek.Wedding.2.2016.HD-TS.XVID.AC3.HQ.Hive-CM8&amp;tr=udp%3A%2F%2Ftracker.leechers-paradise.org%3A6969&amp;tr=udp%3A%2F%2Fzer0day.ch%3A1337&amp;tr=udp%3A%2F%2Fopen.demonii.com%3A1337&amp;tr=udp%3A%2F%2Ftracker.coppersurfer.tk%3A6969&amp;tr=udp%3A%2F%2Fexodus.desync.com%3A6969","seeders":1,"leechers":3,"uploader":"LegendET","files":3,"time":1460158062,"description":"[center][img]http://i.imgur.com/pgAuxmX.jpg[/img]\r\n\r\n \r\n[color=blue][size=4][b]My.Big.Fat.Greek.Wedding.2.2016.HD-TS.XVID.AC3.HQ.Hive-CM8[/b][/size][/color]\r\n\r\nThx Hive\r\n\r\nCM8 Doing It Right The First Time \r\n\r\nSources:\r\n\r\nVideo: Latino DVD-R\r\nAudio: Exclusive-cpg/Thor Line\r\nthx\r\n\r\n\r\nNotes:\r\nWaited for the source-dvd, this one doesnt have the framerate problems(30 frames) and videoquality is a lot nicer.\r\n\r\nAnother perfect release, best possible Video and best possible Line combined for this blockbuster.\r\nOne good release is the way to go, patience\r\nthx for everyone involved\r\n\r\n\r\nEncode:\r\nVideoquality was very nice already, added sharpness,brightness,contrast,fixed rgb and removed the flicker.\r\n\r\nLine Audio was nice, just had a lot of oos spots, needed 40 cuts, now all is lipsync as usually :=)\r\n\r\ngot very nice and will do me till retail\r\nenjoy\r\n\r\n\r\nVideo: 720x352 @bitrate 1600 2pass\r\nAudio: Line AC3 2.0 Stereo\r\nSample: yes included\r\n\r\n\r\n \nhttp://www.imdb.com/title/tt3760922/\r\n\r\n\r\nGeneral\r\nComplete name                  : My.Big.Fat.Greek.Wedding.2.2016.HD-TS.XVID.AC3.HQ.Hive-CM8.avi\r\nFormat                         : AVI\r\nFormat/Info                    : Audio Video Interleave\r\nFile size                      : 1.17 GiB\r\nDuration                       : 1h 29mn\r\nOverall bit rate               : 1 868 Kbps\r\nWriting application            : Nandub v1.0rc2\r\nWriting library                : Nandub build 1853/release\r\n\r\nVideo\r\nID                             : 0\r\nFormat                         : MPEG-4 Visual\r\nFormat profile                 : Advanced   \r\nFormat settings, BVOP          : 2\r\nFormat settings, QPel          : Yes\r\nFormat settings, GMC           : No warppoints\r\nFormat settings, Matrix        : Default (H.263)\r\nMuxing mode                    : Packed bitstream\r\nCodec ID                       : XVID\r\nCodec ID/Hint                  : XviD\r\nDuration                       : 1h 29mn\r\nBit rate                       : 1 600 Kbps\r\nWidth                          : 720 pixels\r\nHeight                         : 352 pixels\r\nDisplay aspect ratio           : 2.045\r\nFrame rate                     : 29.970 fps\r\nColor space                    : YUV\r\nChroma subsampling             : 4:2:0\r\nBit depth                      : 8 bits\r\nScan type                      : Progressive\r\nCompression mode               : Lossy\r\nBits/(Pixel*Frame)             : 0.211\r\nStream size                    : 1.00 GiB (86%)\r\nWriting library                : XviD 1.2.1 (UTC 2008-12-04)\r\n\r\nAudio\r\nID                             : 1\r\nFormat                         : AC-3\r\nFormat/Info                    : Audio Coding 3\r\nMode extension                 : CM (complete main)\r\nFormat settings, Endianness    : Big\r\nCodec ID                       : 2000\r\nDuration                       : 1h 29mn\r\nBit rate mode                  : Constant\r\nBit rate                       : 256 Kbps\r\nChannel(s)                     : 2 channels\r\nChannel positions              : Front: L R\r\nSampling rate                  : 48.0 KHz\r\nBit depth                      : 16 bits\r\nCompression mode               : Lossy\r\nStream size                    : 164 MiB (14%)\r\nAlignment                      : Split accross interleaves\r\nInterleave, duration           : 33 ms (1.00 video frame)\r\nInterleave, preload duration   : 500 ms\r\n\r\n\r\nScreens \r\n\r\n[img]http://i.imgur.com/zmaUz8m.png[/img]\r\n[img]http://i.imgur.com/I22Cn7z.png[/img]\r\n[img]http://i.imgur.com/JxF893y.png[/img]\r\n[img]http://i.imgur.com/nyZZheG.png[/img]\r\n[img]http://i.imgur.com/txYGKxE.png[/img]\r\n[img]http://i.imgur.com/t7UV58Y.png[/img]\r\n[img]http://i.imgur.com/IglKgzk.png[/img]\r\n[img]http://i.imgur.com/rPxn1sJ.png[/img]\r\n\r\n\r\n\r\nPlot\r\n\r\nA Portokalos family secret brings the beloved characters back together for an even bigger and Greeker wedding.\r\n\r\n\r\n\r\nCast overview, first billed only:\r\nNia Vardalos\t\t...\tToula\r\nJohn Corbett\t\t...\tIan\r\nMichael Constantine\t...\tGus\r\nLainie Kazan\t\t...\tMaria\r\nAndrea Martin\t\t...\tAunt Voula\r\nGia Carides\t\t...\tNikki\r\nJoey Fatone\t\t...\tAngelo\r\nElena Kampouris\t\t...\tParis\r\nAlex Wolff\t\t...\tBennett\r\nLouis Mandylor\t\t...\tNick\r\nBess Meisler\t\t...\tMana-Yiayia\r\nBruce Gray\t\t...\tRodney Miller\r\nFiona Reid\t\t...\tHarriet Miller\r\nIan Gomez\t\t...\tMike\r\nJayne Eastwood\t\t...\tMrs. White  \r\n\r\nLOOKING FOR ANYTHING YOU WANT TO LOOK AND SOUND BETTER\r\n\r\nCOME FIND US WE DONT BITE[/center]","torrent":{"xt":"urn:btih:4e260539b9f250ba2ec00b48d066eca653c8b807","amp;dn":"My.Big.Fat.Greek.Wedding.2.2016.HD-TS.XVID.AC3.HQ.Hive-CM8","amp;tr":["udp%3A%2F%2Ftracker.leechers-paradise.org%3A6969","udp%3A%2F%2Fzer0day.ch%3A1337","udp%3A%2F%2Fopen.demonii.com%3A1337","udp%3A%2F%2Ftracker.coppersurfer.tk%3A6969","udp%3A%2F%2Fexodus.desync.com%3A6969"],"infoHash":"4e260539b9f250ba2ec00b48d066eca653c8b807","infoHashBuffer":{"type":"Buffer","data":[78,38,5,57,185,242,80,186,46,192,11,72,208,102,236,166,83,200,184,7]},"announce":[],"urlList":[]}}